<svg xmlns="http://www.w3.org/2000/svg" xmlns:xlink="http://www.w3.org/1999/xlink" version="1.1" viewBox="1409.09 409.09 1704.55 464.03">
  <g transform="scale(11.363636363636363) translate(10, 10)">
    <defs id="SvgjsDefs3630"/>
    <g id="SvgjsG3633" featureKey="nameFeature-0" transform="matrix(1.4563106796116505,0,0,1.4563106796116505,114,8.582525605136908)" fill="#fff">
      <path d="M21.24 25.68 l0 -13.72 l9.36 0 l0 28.04 l-9.36 0 l-15 -17.36 l0 -4.8 l16.44 19.04 l4.8 0 l0 -21.8 l-3.12 0 l0 19 l-16.44 -19 l-4.8 0 l0 21.8 l3.12 0 l0 -9.44 l3.12 3.6 l0 8.96 l-9.36 0 l0 -28.04 l9.36 0 z M66.80000000000001 11.96 l0 9.36 l-21.24 0 l0 3.12 l15.76 0 l0 3.12 l-18.88 0 l0 -9.36 l21.24 0 l0 -3.12 l-24.36 0 l0 21.8 l24.36 0 l0 -3.12 l-21.24 0 l0 -3.12 l24.36 0 l0 9.36 l-30.6 0 l0 -28.04 l30.6 0 z M93.64 21.32 l0 -9.36 l9.36 0 l0 28.04 l-9.36 0 l0 -9.32 l-18.12 0 l0 6.2 l3.12 0 l0 -3.12 l3.12 0 l0 6.24 l-9.36 0 l0 -12.48 l24.4 0 l0 9.36 l3.08 0 l0 -21.8 l-3.08 0 l0 9.36 l-18.16 0 l0 -9.36 l-3.12 0 l0 9.36 l-3.12 0 l0 -12.48 l9.36 0 l0 9.36 l11.88 0 z"/>
    </g>
  </g>
</svg>
