
        <svg xmlns="http://www.w3.org/2000/svg" xmlns:xlink="http://www.w3.org/1999/xlink" version="1.1" width="3227.272727272727" height="1292.6136363636363" viewBox="0 0 3227.272727272727 1292.6136363636363">
			
			<g transform="scale(11.363636363636363) translate(10, 10)">
				<defs id="SvgjsDefs3630"/><g id="SvgjsG3631" featureKey="symbolContainer" transform="matrix(0.46774436674081754,0,0,0.46774436674081754,0,0)" fill="#fff"><path xmlns="http://www.w3.org/2000/svg" d="M100.215 200.43c55.259 0 100.215-44.956 100.215-100.215S155.474 0 100.215 0 0 44.956 0 100.215 44.956 200.43 100.215 200.43zm0-190.43c49.745 0 90.215 40.47 90.215 90.215s-40.47 90.215-90.215 90.215C50.47 190.43 10 149.959 10 100.215S50.47 10 100.215 10z"/></g><g id="SvgjsG3632" featureKey="symbolFeature-0" transform="matrix(19.144863867091754,0,0,19.144863867091754,-0.862159667729383,-0.862159667729383)" fill="#fff"><title xmlns="http://www.w3.org/2000/svg">maze</title><g xmlns="http://www.w3.org/2000/svg"><polygon points="2.77 1.478 3.325 1.478 3.325 1.285 2.964 1.285 2.964 0.933 2.395 0.933 2.395 1.126 2.77 1.126 2.77 1.478"/><polygon points="2.396 1.93 2.59 1.93 2.59 1.361 2.237 1.361 2.237 1 2.044 1 2.044 1.555 2.396 1.555 2.396 1.93"/><polygon points="3.164 2.205 3.358 2.205 3.358 1.845 3.71 1.845 3.71 1.276 3.516 1.276 3.516 1.651 3.164 1.651 3.164 2.205"/><polygon points="2.763 2.059 2.413 2.059 2.403 2.498 2.597 2.502 2.603 2.253 2.957 2.253 2.957 1.684 2.763 1.684 2.763 2.059"/><polygon points="4.067 2.395 3.874 2.395 3.874 2.77 3.522 2.77 3.522 3.325 3.715 3.325 3.715 2.964 4.067 2.964 4.067 2.395"/><polygon points="3.513 2.396 3.07 2.396 3.07 2.59 3.707 2.59 3.707 2.237 4 2.237 4 2.044 3.513 2.044 3.513 2.396"/><polygon points="3.724 3.71 3.724 3.516 3.349 3.516 3.349 3.083 2.795 3.083 2.795 3.277 3.155 3.277 3.155 3.71 3.724 3.71"/><polygon points="2.747 2.503 2.747 2.942 3.316 2.942 3.316 2.748 2.941 2.748 2.941 2.503 2.747 2.503"/><polygon points="2.605 4.067 2.605 3.874 2.23 3.874 2.23 3.522 1.675 3.522 1.675 3.715 2.036 3.715 2.036 4.067 2.605 4.067"/><polygon points="2.956 4 2.956 3.445 2.604 3.445 2.604 3.07 2.41 3.07 2.41 3.639 2.763 3.639 2.763 4 2.956 4"/><polygon points="1.484 3.349 1.836 3.349 1.836 2.795 1.642 2.795 1.642 3.155 1.29 3.155 1.29 3.724 1.484 3.724 1.484 3.349"/><polygon points="2.043 3.316 2.237 3.316 2.237 2.876 2.6 2.876 2.6 2.682 2.043 2.682 2.043 3.316"/><polygon points="1.126 2.23 1.497 2.23 1.497 1.675 1.304 1.675 1.304 2.036 0.933 2.036 0.933 2.605 1.126 2.605 1.126 2.23"/><polygon points="1.304 2.763 1 2.763 1 2.956 1.497 2.956 1.497 2.604 1.93 2.604 1.93 2.41 1.304 2.41 1.304 2.763"/><polygon points="1.651 1.909 2.205 1.909 2.205 1.716 1.845 1.716 1.845 1.29 1.276 1.29 1.276 1.484 1.651 1.484 1.651 1.909"/><polygon points="1.684 2.237 2.059 2.237 2.059 2.492 2.253 2.492 2.253 2.043 1.684 2.043 1.684 2.237"/></g></g><g id="SvgjsG3633" featureKey="nameFeature-0" transform="matrix(1.4563106796116505,0,0,1.4563106796116505,114,8.582525605136908)" fill="#fff"><path d="M21.24 25.68 l0 -13.72 l9.36 0 l0 28.04 l-9.36 0 l-15 -17.36 l0 -4.8 l16.44 19.04 l4.8 0 l0 -21.8 l-3.12 0 l0 19 l-16.44 -19 l-4.8 0 l0 21.8 l3.12 0 l0 -9.44 l3.12 3.6 l0 8.96 l-9.36 0 l0 -28.04 l9.36 0 z M66.80000000000001 11.96 l0 9.36 l-21.24 0 l0 3.12 l15.76 0 l0 3.12 l-18.88 0 l0 -9.36 l21.24 0 l0 -3.12 l-24.36 0 l0 21.8 l24.36 0 l0 -3.12 l-21.24 0 l0 -3.12 l24.36 0 l0 9.36 l-30.6 0 l0 -28.04 l30.6 0 z M93.64 21.32 l0 -9.36 l9.36 0 l0 28.04 l-9.36 0 l0 -9.32 l-18.12 0 l0 6.2 l3.12 0 l0 -3.12 l3.12 0 l0 6.24 l-9.36 0 l0 -12.48 l24.4 0 l0 9.36 l3.08 0 l0 -21.8 l-3.08 0 l0 9.36 l-18.16 0 l0 -9.36 l-3.12 0 l0 9.36 l-3.12 0 l0 -12.48 l9.36 0 l0 9.36 l11.88 0 z"/></g>
			</g>
		</svg>
	